<svg height="800" node-id="1" sillyvg="true" template-height="800" template-width="800" version="1.1" viewBox="0 0 800 800" width="800" xmlns="http://www.w3.org/2000/svg" xmlns:xlink="http://www.w3.org/1999/xlink"><defs node-id="114"><mask height="596" id="mask0" maskUnits="userSpaceOnUse" node-id="4" width="647" x="105" y="102"><path d="M 106.70 378.90 L 108.00 365.20 L 109.80 352.00 L 112.20 339.10 L 115.10 326.50 L 118.60 314.30 L 122.70 302.10 L 127.20 290.30 L 132.10 278.80 L 137.60 267.70 L 143.50 256.90 L 149.80 246.30 L 156.60 236.10 L 163.70 226.30 L 171.20 216.80 L 179.10 207.60 L 187.40 198.70 L 196.00 190.20 L 204.80 182.10 L 214.00 174.30 L 223.50 166.90 L 233.30 159.80 L 243.30 153.20 L 253.50 146.90 L 263.90 141.00 L 274.50 135.50 L 285.40 130.40 L 296.30 125.70 L 307.40 121.50 L 318.70 117.70 L 330.00 114.20 L 341.50 111.20 L 353.10 108.70 L 364.70 106.50 L 376.30 104.90 L 388.00 103.70 L 399.70 102.90 L 411.40 102.60 L 423.00 102.70 L 434.60 103.40 L 446.20 104.50 L 457.70 106.10 L 469.10 108.20 L 480.40 110.80 L 491.60 113.90 L 502.60 117.40 L 513.50 121.50 L 524.20 126.10 L 534.70 131.30 L 545.00 137.00 L 555.20 143.20 L 565.00 149.90 L 574.50 157.10 L 583.80 164.90 L 592.90 173.30 L 601.70 182.40 L 614.70 196.80 L 627.10 211.40 L 639.10 226.30 L 650.60 241.60 L 661.60 257.20 L 672.10 273.00 L 682.00 289.00 L 691.40 305.10 L 700.20 321.60 L 708.30 338.20 L 715.80 354.90 L 722.70 371.60 L 727.70 385.20 L 732.30 398.80 L 736.40 412.40 L 740.00 426.00 L 743.20 439.60 L 745.90 453.30 L 748.10 467.00 L 749.70 480.60 L 750.90 494.10 L 751.50 507.60 L 751.60 521.10 L 751.10 534.60 L 750.10 547.90 L 748.50 561.10 L 746.30 574.20 L 743.60 587.30 L 740.20 600.10 L 736.20 612.90 L 731.50 625.50 L 726.20 638.10 L 721.40 648.20 L 716.10 658.30 L 710.30 668.20 L 704.00 678.10 L 697.20 687.90 L 689.80 697.70 L 327.80 697.70 L 318.70 680.00 L 306.50 655.70 L 302.70 649.40 L 298.70 643.60 L 294.60 638.30 L 290.00 633.20 L 280.40 624.10 L 275.30 620.10 L 268.20 615.00 L 260.90 610.40 L 253.30 606.20 L 241.70 600.30 L 193.60 578.50 L 181.80 572.40 L 174.20 567.90 L 166.80 563.10 L 159.60 557.80 L 154.40 553.50 L 144.50 543.90 L 139.80 538.50 L 135.50 532.90 L 131.30 526.80 L 127.40 520.10 L 123.60 512.80 L 120.40 505.40 L 117.30 497.30 L 114.50 488.50 L 112.00 478.80 L 110.00 469.30 L 108.30 458.80 L 107.00 447.30 L 106.00 434.80 L 105.50 422.60 L 105.40 409.30 L 105.80 394.70 L 106.70 378.90 Z" fill="#ffffff" fill-rule="nonzero" node-id="117" stroke="none" target-height="595.10004" target-width="646.19995" target-x="105.4" target-y="102.6"/></mask><mask height="52" id="mask1" maskUnits="userSpaceOnUse" node-id="10" width="74" x="284" y="228"><path d="M 287.20 275.80 L 285.70 265.10 L 285.20 257.90 L 285.30 253.50 L 285.80 250.90 L 286.40 249.50 L 287.20 248.90 L 285.90 246.20 L 285.20 243.70 L 285.00 241.30 L 285.20 239.10 L 286.60 235.30 L 287.80 233.70 L 289.50 232.30 L 292.40 230.90 L 295.80 230.00 L 301.00 229.10 L 307.00 228.70 L 315.50 228.70 L 325.00 229.10 L 337.50 230.10 L 342.40 231.10 L 346.30 232.60 L 349.50 234.30 L 352.10 236.40 L 354.20 238.80 L 355.70 241.50 L 356.80 244.70 L 357.40 248.30 L 357.70 255.90 L 357.60 263.60 L 356.90 271.30 L 355.70 279.00 L 287.20 279.00 L 287.20 275.80 Z" fill="#ffffff" fill-rule="nonzero" node-id="121" stroke="none" target-height="50.300003" target-width="72.70001" target-x="285" target-y="228.7"/></mask><mask height="118" id="mask2" maskUnits="userSpaceOnUse" node-id="17" width="65" x="289" y="255"><path d="M 302.80 328.60 L 300.90 327.40 L 299.10 325.60 L 297.30 323.20 L 295.70 319.90 L 294.10 315.70 L 292.70 310.30 L 291.40 303.50 L 290.50 295.00 L 289.80 284.70 L 289.60 255.20 L 292.40 256.90 L 295.30 258.30 L 298.40 259.30 L 301.80 259.90 L 305.30 260.10 L 329.60 258.10 L 334.80 257.90 L 344.10 258.20 L 347.50 258.90 L 349.60 259.60 L 350.90 260.50 L 351.60 261.50 L 353.00 268.20 L 353.90 279.40 L 353.70 293.10 L 353.10 300.20 L 352.10 307.10 L 349.90 315.80 L 348.60 319.50 L 346.80 323.00 L 344.90 325.90 L 342.70 328.10 L 342.70 356.10 L 341.70 359.70 L 340.20 362.80 L 338.40 365.30 L 336.30 367.50 L 333.70 369.30 L 330.70 370.70 L 327.10 371.70 L 322.90 372.30 L 318.80 372.40 L 315.50 372.00 L 312.90 371.20 L 310.50 369.90 L 308.60 368.50 L 307.10 366.80 L 305.30 364.00 L 304.20 361.20 L 302.80 356.10 L 302.30 353.30 L 302.20 340.50 L 302.80 328.60 Z" fill="#ffffff" fill-rule="nonzero" node-id="125" stroke="none" target-height="117.2" target-width="64.29999" target-x="289.6" target-y="255.2"/></mask><mask height="49" id="mask3" maskUnits="userSpaceOnUse" node-id="27" width="64" x="290" y="289"><path d="M 290.20 289.20 L 291.70 295.60 L 293.30 300.30 L 295.00 303.70 L 296.60 306.00 L 298.20 307.50 L 299.70 308.40 L 301.40 308.80 L 303.10 308.70 L 317.50 305.40 L 321.50 305.10 L 325.70 305.30 L 331.40 306.60 L 338.80 309.90 L 341.90 310.90 L 343.80 311.10 L 345.40 310.70 L 346.80 309.90 L 348.00 308.60 L 349.20 306.50 L 350.40 303.20 L 352.00 297.70 L 353.80 289.20 L 353.50 296.90 L 352.80 303.60 L 351.80 309.30 L 350.50 314.30 L 349.10 318.60 L 347.50 322.20 L 345.80 324.90 L 343.80 327.50 L 341.40 329.90 L 338.70 332.10 L 335.70 333.90 L 332.40 335.40 L 329.00 336.50 L 325.30 337.10 L 321.30 337.40 L 317.30 337.10 L 313.10 336.30 L 308.60 334.80 L 305.70 333.40 L 303.00 331.50 L 300.50 329.00 L 298.20 326.00 L 296.20 322.30 L 294.30 317.80 L 292.80 312.30 L 291.50 305.90 L 290.60 298.20 L 290.20 289.20 Z" fill="#ffffff" fill-rule="nonzero" node-id="129" stroke="none" target-height="48.19998" target-width="63.599976" target-x="290.2" target-y="289.2"/></mask><mask height="40" id="mask4" maskUnits="userSpaceOnUse" node-id="38" width="84" x="48" y="455"><path d="M 132.00 473.50 L 125.90 467.40 L 120.90 463.10 L 116.80 460.20 L 113.40 458.40 L 110.70 457.50 L 108.50 457.20 L 98.80 456.90 L 78.70 455.60 L 78.30 457.40 L 78.40 458.90 L 78.90 460.20 L 79.70 461.30 L 81.00 462.30 L 66.80 461.20 L 57.90 461.00 L 52.80 461.20 L 50.20 461.70 L 49.10 462.20 L 48.00 463.80 L 48.50 465.30 L 51.60 467.30 L 51.00 468.20 L 51.00 469.10 L 51.50 470.00 L 52.90 471.20 L 55.70 472.60 L 55.50 473.60 L 55.80 474.50 L 56.70 475.40 L 58.30 476.30 L 61.00 477.30 L 65.30 478.20 L 65.50 479.20 L 66.10 480.10 L 67.40 481.20 L 69.70 482.30 L 79.40 485.00 L 96.90 488.50 L 105.10 489.70 L 114.60 490.40 L 118.50 491.10 L 122.80 492.40 L 127.70 494.20 L 132.00 473.50 Z" fill="#ffffff" fill-rule="nonzero" node-id="133" stroke="none" target-height="38.600006" target-width="84" target-x="48" target-y="455.6"/></mask><mask height="310" id="mask5" maskUnits="userSpaceOnUse" node-id="47" width="328" x="124" y="338"><path d="M 343.10 338.70 L 365.70 348.30 L 373.50 351.20 L 389.20 354.20 L 395.10 355.80 L 401.60 358.00 L 410.20 362.20 L 414.40 364.90 L 418.40 367.90 L 422.10 371.50 L 425.60 375.60 L 427.80 379.00 L 429.90 382.70 L 431.60 386.80 L 435.30 399.80 L 440.10 421.20 L 444.70 446.10 L 446.80 459.10 L 450.00 485.00 L 451.10 497.50 L 451.60 509.00 L 451.60 516.60 L 450.80 529.30 L 449.90 535.20 L 448.60 539.90 L 447.20 543.50 L 438.50 560.40 L 425.00 585.20 L 405.30 620.10 L 405.30 647.70 L 307.70 647.70 L 301.10 593.20 L 277.20 645.00 L 230.90 627.40 L 243.90 583.60 L 251.80 555.30 L 256.10 538.30 L 257.90 529.10 L 258.30 524.70 L 258.10 516.10 L 256.90 500.00 L 254.30 473.00 L 248.50 484.10 L 243.10 493.30 L 238.20 500.80 L 233.70 506.90 L 229.50 511.70 L 225.70 515.40 L 222.30 518.10 L 219.00 520.10 L 216.00 521.40 L 213.20 522.10 L 209.00 522.50 L 203.00 522.40 L 194.50 521.60 L 183.10 519.90 L 168.00 517.00 L 148.60 512.70 L 124.10 506.60 L 132.10 466.20 L 202.10 476.20 L 207.50 455.90 L 212.60 438.60 L 217.40 423.90 L 222.00 411.60 L 226.30 401.40 L 230.40 393.00 L 234.20 386.30 L 237.70 380.90 L 241.10 376.80 L 244.20 373.70 L 247.10 371.40 L 249.90 369.80 L 272.60 359.80 L 288.60 353.10 L 302.00 345.70 L 304.70 349.40 L 307.40 352.20 L 310.00 354.20 L 312.70 355.60 L 315.30 356.40 L 318.10 356.60 L 320.10 356.40 L 322.60 355.70 L 325.50 354.30 L 328.80 352.10 L 332.90 348.90 L 337.60 344.50 L 343.10 338.70 Z M 400.30 491.50 L 398.30 496.40 L 396.80 501.50 L 395.80 507.00 L 395.40 512.70 L 395.60 518.80 L 396.50 525.30 L 398.00 532.30 L 400.30 539.80 L 406.40 520.80 L 400.30 491.50 Z" fill="#ffffff" fill-rule="nonzero" node-id="137" stroke="none" target-height="309" target-width="327.5" target-x="124.1" target-y="338.7"/></mask><mask height="149" id="mask6" maskUnits="userSpaceOnUse" node-id="53" width="50" x="295" y="339"><path d="M 300.90 345.80 L 298.80 357.50 L 297.20 369.80 L 296.10 382.50 L 295.50 395.70 L 295.50 409.50 L 296.10 423.90 L 297.30 438.80 L 299.20 454.40 L 301.70 470.70 L 304.90 487.70 L 310.90 476.60 L 316.40 465.10 L 321.40 453.10 L 326.00 440.80 L 330.20 427.90 L 333.90 414.60 L 337.10 400.70 L 339.80 386.30 L 342.10 371.40 L 343.80 355.80 L 345.00 339.70 L 317.80 353.10 L 300.90 345.80 Z" fill="#ffffff" fill-rule="nonzero" node-id="141" stroke="none" target-height="148" target-width="49.5" target-x="295.5" target-y="339.7"/></mask><mask height="152" id="mask7" maskUnits="userSpaceOnUse" node-id="75" width="149" x="457" y="546"><path d="M 602.60 614.20 L 604.20 624.20 L 605.20 634.00 L 605.70 643.50 L 605.60 652.90 L 604.90 662.10 L 603.70 671.10 L 601.90 679.90 L 599.60 688.70 L 596.80 697.30 L 458.80 697.30 L 457.90 679.90 L 457.50 664.70 L 457.70 651.40 L 458.40 639.90 L 459.40 630.00 L 460.80 621.50 L 468.40 591.00 L 472.20 574.40 L 474.30 563.00 L 475.10 555.60 L 475.20 551.00 L 474.80 548.50 L 474.20 547.20 L 473.50 546.70 L 581.00 552.30 L 584.10 557.00 L 587.20 562.70 L 590.40 569.80 L 593.50 578.20 L 596.60 588.30 L 599.70 600.30 L 602.60 614.20 Z" fill="#ffffff" fill-rule="nonzero" node-id="145" stroke="none" target-height="150.59998" target-width="148.20001" target-x="457.5" target-y="546.7"/></mask><mask height="256" id="mask8" maskUnits="userSpaceOnUse" node-id="80" width="205" x="419" y="380"><path d="M 525.60 380.70 L 547.60 383.30 L 579.60 392.10 L 597.90 397.60 L 607.10 400.80 L 610.90 402.50 L 613.60 404.20 L 616.60 406.80 L 619.90 411.30 L 622.60 417.20 L 623.40 420.80 L 623.90 425.00 L 624.00 429.20 L 623.50 434.20 L 622.50 439.90 L 616.60 462.00 L 611.10 479.40 L 604.40 497.30 L 596.80 514.10 L 592.80 521.70 L 588.70 528.30 L 595.80 553.00 L 601.60 574.60 L 606.00 593.40 L 609.40 609.60 L 611.70 623.40 L 613.20 635.20 L 552.00 635.10 L 556.80 561.70 L 547.60 563.90 L 538.90 565.50 L 530.50 566.60 L 522.40 567.10 L 514.70 567.10 L 507.20 566.60 L 500.00 565.60 L 493.00 564.20 L 486.20 562.20 L 479.60 559.80 L 473.70 624.10 L 452.60 627.10 L 467.80 530.50 L 455.10 530.70 L 445.00 530.20 L 438.10 529.40 L 432.70 528.20 L 428.50 526.70 L 425.20 525.00 L 422.80 523.20 L 421.00 521.30 L 419.90 519.20 L 419.20 516.80 L 419.00 514.20 L 419.40 511.20 L 420.80 506.10 L 423.40 498.80 L 430.30 481.50 L 439.00 461.60 L 448.60 441.40 L 457.80 422.90 L 465.50 408.30 L 470.60 399.90 L 473.90 396.10 L 477.60 392.40 L 480.40 390.30 L 483.70 388.20 L 487.70 386.30 L 491.80 384.80 L 496.90 383.40 L 503.00 382.20 L 509.20 381.40 L 525.60 380.70 Z" fill="#ffffff" fill-rule="nonzero" node-id="149" stroke="none" target-height="254.5" target-width="205" target-x="419" target-y="380.7"/></mask><mask height="118" id="mask9" maskUnits="userSpaceOnUse" node-id="94" width="75" x="502" y="295"><path d="M 575.90 320.10 L 575.20 319.00 L 574.30 318.30 L 573.10 318.00 L 571.40 318.10 L 569.20 318.80 L 569.00 310.50 L 549.70 309.40 L 541.70 308.00 L 536.80 306.30 L 531.10 303.80 L 524.60 300.20 L 517.10 295.30 L 514.80 299.20 L 512.80 301.90 L 511.00 303.60 L 509.20 304.60 L 509.20 318.30 L 506.90 317.50 L 505.10 317.40 L 503.90 317.80 L 502.90 318.60 L 502.30 320.10 L 502.00 321.80 L 502.30 324.20 L 503.90 329.30 L 506.30 333.80 L 507.70 335.50 L 508.70 336.30 L 510.10 343.10 L 511.90 349.10 L 514.10 354.50 L 516.70 359.30 L 519.60 363.60 L 520.40 374.90 L 520.50 382.70 L 520.20 387.90 L 518.30 396.70 L 518.20 399.80 L 518.60 402.90 L 519.30 404.80 L 520.40 406.60 L 522.00 408.40 L 523.90 409.70 L 526.60 411.00 L 530.20 412.00 L 533.20 412.30 L 536.00 412.10 L 538.70 411.50 L 541.40 410.40 L 546.20 407.40 L 549.50 404.60 L 554.70 398.40 L 556.50 395.60 L 558.30 391.10 L 558.60 387.20 L 558.70 378.90 L 558.30 363.60 L 560.30 360.80 L 562.40 357.00 L 564.60 351.80 L 566.80 345.00 L 569.00 336.30 L 571.10 335.00 L 572.30 333.60 L 574.60 329.50 L 576.20 324.40 L 576.30 322.00 L 575.90 320.10 Z" fill="#ffffff" fill-rule="nonzero" node-id="153" stroke="none" target-height="117" target-width="74.29999" target-x="502" target-y="295.3"/></mask></defs><path d="M 0.00 6.75 L -800.00 6.75 L -800.00 806.75 L 0.00 806.75 L 0.00 6.75 Z" fill="#ffffff" fill-rule="nonzero" hidden="true" node-id="157" stroke="none" target-height="800" target-width="800" target-x="-800" target-y="6.751704" visibility="hidden"/><path d="M 419.40 182.40 L 433.10 182.70 L 446.60 183.50 L 459.90 184.90 L 473.00 186.70 L 485.90 189.10 L 498.70 192.00 L 511.30 195.40 L 523.70 199.20 L 535.90 203.60 L 547.80 208.30 L 559.50 213.60 L 571.00 219.30 L 582.20 225.30 L 593.10 231.80 L 603.80 238.80 L 614.20 246.10 L 624.30 253.80 L 634.10 261.80 L 643.50 270.30 L 652.60 279.10 L 661.40 288.20 L 669.80 297.60 L 677.90 307.40 L 685.60 317.50 L 692.90 327.90 L 699.80 338.60 L 706.30 349.50 L 712.40 360.70 L 718.10 372.20 L 723.30 383.90 L 728.10 395.90 L 732.40 408.00 L 736.30 420.40 L 739.60 433.00 L 742.50 445.90 L 744.90 458.80 L 746.80 471.90 L 748.10 485.20 L 749.00 498.70 L 749.20 512.40 L 749.00 526.20 L 748.10 539.70 L 746.80 553.10 L 744.90 566.20 L 742.50 579.20 L 739.50 592.10 L 736.10 604.80 L 732.20 617.20 L 727.90 629.40 L 723.10 641.40 L 717.80 653.20 L 712.10 664.70 L 705.90 676.00 L 699.40 687.00 L 692.40 697.70 L 146.40 697.70 L 139.40 687.00 L 132.80 676.00 L 126.70 664.70 L 121.00 653.20 L 115.70 641.40 L 110.80 629.40 L 106.50 617.20 L 102.60 604.80 L 99.20 592.10 L 96.30 579.20 L 93.90 566.20 L 92.00 553.10 L 90.60 539.70 L 89.80 526.20 L 89.50 512.40 L 89.80 498.70 L 90.60 485.20 L 92.00 471.90 L 93.80 458.80 L 96.20 445.90 L 99.10 433.00 L 102.50 420.40 L 106.30 408.00 L 110.60 395.90 L 115.40 383.90 L 120.70 372.20 L 126.30 360.70 L 132.40 349.50 L 138.90 338.60 L 145.80 327.90 L 153.20 317.50 L 160.90 307.40 L 168.90 297.60 L 177.30 288.20 L 186.10 279.10 L 195.30 270.30 L 204.70 261.80 L 214.50 253.80 L 224.50 246.10 L 234.90 238.80 L 245.60 231.80 L 256.50 225.30 L 267.70 219.30 L 279.20 213.60 L 291.00 208.30 L 302.90 203.60 L 315.00 199.20 L 327.40 195.40 L 340.00 192.00 L 352.90 189.10 L 365.80 186.70 L 378.90 184.90 L 392.20 183.50 L 405.70 182.70 L 419.40 182.40 Z" fill="#e7eeff" fill-rule="evenodd" node-id="159" stroke="none" target-height="515.30005" target-width="659.7" target-x="89.5" target-y="182.4"/><g node-id="349"><path d="M 106.70 378.90 L 108.00 365.20 L 109.80 352.00 L 112.20 339.10 L 115.10 326.50 L 118.60 314.30 L 122.70 302.10 L 127.20 290.30 L 132.10 278.80 L 137.60 267.70 L 143.50 256.90 L 149.80 246.30 L 156.60 236.10 L 163.70 226.30 L 171.20 216.80 L 179.10 207.60 L 187.40 198.70 L 196.00 190.20 L 204.80 182.10 L 214.00 174.30 L 223.50 166.90 L 233.30 159.80 L 243.30 153.20 L 253.50 146.90 L 263.90 141.00 L 274.50 135.50 L 285.40 130.40 L 296.30 125.70 L 307.40 121.50 L 318.70 117.70 L 330.00 114.20 L 341.50 111.20 L 353.10 108.70 L 364.70 106.50 L 376.30 104.90 L 388.00 103.70 L 399.70 102.90 L 411.40 102.60 L 423.00 102.70 L 434.60 103.40 L 446.20 104.50 L 457.70 106.10 L 469.10 108.20 L 480.40 110.80 L 491.60 113.90 L 502.60 117.40 L 513.50 121.50 L 524.20 126.10 L 534.70 131.30 L 545.00 137.00 L 555.20 143.20 L 565.00 149.90 L 574.50 157.10 L 583.80 164.90 L 592.90 173.30 L 601.70 182.40 L 614.70 196.80 L 627.10 211.40 L 639.10 226.30 L 650.60 241.60 L 661.60 257.20 L 672.10 273.00 L 682.00 289.00 L 691.40 305.10 L 700.20 321.60 L 708.30 338.20 L 715.80 354.90 L 722.70 371.60 L 727.70 385.20 L 732.30 398.80 L 736.40 412.40 L 740.00 426.00 L 743.20 439.60 L 745.90 453.30 L 748.10 467.00 L 749.70 480.60 L 750.90 494.10 L 751.50 507.60 L 751.60 521.10 L 751.10 534.60 L 750.10 547.90 L 748.50 561.10 L 746.30 574.20 L 743.60 587.30 L 740.20 600.10 L 736.20 612.90 L 731.50 625.50 L 726.20 638.10 L 721.40 648.20 L 716.10 658.30 L 710.30 668.20 L 704.00 678.10 L 697.20 687.90 L 689.80 697.70 L 327.80 697.70 L 318.70 680.00 L 306.50 655.70 L 302.70 649.40 L 298.70 643.60 L 294.60 638.30 L 290.00 633.20 L 280.40 624.10 L 275.30 620.10 L 268.20 615.00 L 260.90 610.40 L 253.30 606.20 L 241.70 600.30 L 193.60 578.50 L 181.80 572.40 L 174.20 567.90 L 166.80 563.10 L 159.60 557.80 L 154.40 553.50 L 144.50 543.90 L 139.80 538.50 L 135.50 532.90 L 131.30 526.80 L 127.40 520.10 L 123.60 512.80 L 120.40 505.40 L 117.30 497.30 L 114.50 488.50 L 112.00 478.80 L 110.00 469.30 L 108.30 458.80 L 107.00 447.30 L 106.00 434.80 L 105.50 422.60 L 105.40 409.30 L 105.80 394.70 L 106.70 378.90 Z" fill="#f4f7ff" fill-rule="nonzero" group-id="1" node-id="163" stroke="none" target-height="595.10004" target-width="646.19995" target-x="105.4" target-y="102.6"/></g><path d="M 444.60 587.50 L 333.30 551.30 L 308.90 626.40 L 420.20 662.60 L 444.60 587.50 Z" fill="#13bb84" fill-rule="nonzero" node-id="166" stroke="none" target-height="111.29999" target-width="135.70001" target-x="308.9" target-y="551.3"/><path d="M 243.80 609.40 L 250.50 697.30 L 397.70 697.30 L 396.20 655.00 L 371.00 646.60 L 317.90 585.40 L 250.50 585.40 L 243.80 609.40 Z" fill="#000946" fill-rule="evenodd" node-id="168" stroke="none" target-height="111.89996" target-width="153.90001" target-x="243.8" target-y="585.4"/><g node-id="350"><path d="M 287.20 275.80 L 285.70 265.10 L 285.20 257.90 L 285.30 253.50 L 285.80 250.90 L 286.40 249.50 L 287.20 248.90 L 285.90 246.20 L 285.20 243.70 L 285.00 241.30 L 285.20 239.10 L 286.60 235.30 L 287.80 233.70 L 289.50 232.30 L 292.40 230.90 L 295.80 230.00 L 301.00 229.10 L 307.00 228.70 L 315.50 228.70 L 325.00 229.10 L 337.50 230.10 L 342.40 231.10 L 346.30 232.60 L 349.50 234.30 L 352.10 236.40 L 354.20 238.80 L 355.70 241.50 L 356.80 244.70 L 357.40 248.30 L 357.70 255.90 L 357.60 263.60 L 356.90 271.30 L 355.70 279.00 L 287.20 279.00 L 287.20 275.80 Z" fill="#2c1919" fill-rule="nonzero" group-id="2" node-id="172" stroke="none" target-height="50.300003" target-width="72.70001" target-x="285" target-y="228.7"/><path d="M 352.80 279.00 L 287.20 277.80 L 285.40 266.80 L 284.70 259.30 L 284.60 254.40 L 285.00 251.50 L 285.60 249.90 L 286.30 249.10 L 287.20 248.90 L 288.70 250.70 L 290.70 252.30 L 293.30 253.60 L 296.60 254.70 L 300.80 255.50 L 306.10 255.90 L 312.50 255.80 L 332.80 254.20 L 337.30 254.20 L 341.90 254.60 L 345.40 255.40 L 348.20 256.50 L 350.00 257.80 L 351.40 259.30 L 352.60 261.20 L 353.50 263.40 L 354.10 266.50 L 354.30 270.60 L 353.90 275.80 L 352.60 286.60 L 352.80 279.00 Z" fill="#160f0f" fill-rule="evenodd" group-id="2" node-id="174" stroke="none" target-height="37.700012" target-width="69.69998" target-x="284.6" target-y="248.9"/></g><path d="M 289.60 277.30 L 288.00 276.20 L 286.70 275.80 L 285.60 275.80 L 284.60 276.30 L 283.60 277.30 L 283.20 278.20 L 283.30 281.10 L 284.00 283.60 L 286.50 289.00 L 289.30 292.60 L 290.20 293.00 L 290.70 292.80 L 291.10 291.90 L 291.30 289.70 L 290.90 285.20 L 289.60 277.30 Z" fill="#ff927a" fill-rule="evenodd" node-id="177" stroke="none" target-height="17.200012" target-width="8.099976" target-x="283.2" target-y="275.8"/><path d="M 353.30 277.30 L 354.90 276.20 L 356.20 275.80 L 357.30 275.80 L 358.40 276.30 L 359.30 277.30 L 359.70 278.20 L 359.60 281.10 L 358.90 283.60 L 356.50 289.00 L 353.70 292.60 L 352.70 293.00 L 352.20 292.80 L 351.80 291.90 L 351.60 289.70 L 352.00 285.20 L 353.30 277.30 Z" fill="#ff927a" fill-rule="evenodd" node-id="179" stroke="none" target-height="17.200012" target-width="8.100006" target-x="351.6" target-y="275.8"/><g node-id="351"><path d="M 302.80 328.60 L 300.90 327.40 L 299.10 325.60 L 297.30 323.20 L 295.70 319.90 L 294.10 315.70 L 292.70 310.30 L 291.40 303.50 L 290.50 295.00 L 289.80 284.70 L 289.60 255.20 L 292.40 256.90 L 295.30 258.30 L 298.40 259.30 L 301.80 259.90 L 305.30 260.10 L 329.60 258.10 L 334.80 257.90 L 344.10 258.20 L 347.50 258.90 L 349.60 259.60 L 350.90 260.50 L 351.60 261.50 L 353.00 268.20 L 353.90 279.40 L 353.70 293.10 L 353.10 300.20 L 352.10 307.10 L 349.90 315.80 L 348.60 319.50 L 346.80 323.00 L 344.90 325.90 L 342.70 328.10 L 342.70 356.10 L 341.70 359.70 L 340.20 362.80 L 338.40 365.30 L 336.30 367.50 L 333.70 369.30 L 330.70 370.70 L 327.10 371.70 L 322.90 372.30 L 318.80 372.40 L 315.50 372.00 L 312.90 371.20 L 310.50 369.90 L 308.60 368.50 L 307.10 366.80 L 305.30 364.00 L 304.20 361.20 L 302.80 356.10 L 302.30 353.30 L 302.20 340.50 L 302.80 328.60 Z" fill="#ff927a" fill-rule="nonzero" group-id="3" node-id="183" stroke="none" target-height="117.2" target-width="64.29999" target-x="289.6" target-y="255.2"/><path d="M 317.50 280.90 L 317.50 299.80 L 318.80 300.90 L 321.40 301.70 L 324.00 300.90 L 325.30 299.80" fill="none" group-id="3" node-id="185" stroke="#000000" stroke-linecap="butt" stroke-width="1.2" target-height="20.800018" target-width="7.799988" target-x="317.5" target-y="280.9"/><path d="M 331.50 287.40 L 332.30 287.20 L 332.90 286.60 L 333.50 284.60 L 333.30 283.40 L 332.30 281.90 L 331.50 281.70 L 330.70 281.90 L 329.60 283.40 L 329.50 284.60 L 330.10 286.60 L 330.70 287.20 L 331.50 287.40 Z" fill="#000000" fill-rule="nonzero" group-id="3" node-id="187" stroke="none" target-height="5.6999817" target-width="4" target-x="329.5" target-y="281.7"/><path d="M 307.30 287.40 L 308.10 287.20 L 308.70 286.60 L 309.30 284.60 L 309.20 283.40 L 308.10 281.90 L 307.30 281.70 L 306.50 281.90 L 305.50 283.40 L 305.30 284.60 L 305.90 286.60 L 306.50 287.20 L 307.30 287.40 Z" fill="#000000" fill-rule="nonzero" group-id="3" node-id="189" stroke="none" target-height="5.6999817" target-width="4" target-x="305.3" target-y="281.7"/><path d="M 301.40 275.10 L 304.60 274.20 L 307.60 273.90 L 310.50 274.20 L 313.40 275.10" fill="none" group-id="3" node-id="191" stroke="#000000" stroke-linecap="butt" stroke-width="1.2" target-height="1.2000122" target-width="12" target-x="301.4" target-y="273.9"/><path d="M 337.50 275.10 L 334.40 274.20 L 331.40 273.90 L 328.50 274.20 L 325.60 275.10" fill="none" group-id="3" node-id="193" stroke="#000000" stroke-linecap="butt" stroke-width="1.2" target-height="1.2000122" target-width="11.899994" target-x="325.6" target-y="273.9"/><path d="M 301.10 327.00 L 305.40 330.20 L 309.60 332.50 L 313.70 334.10 L 317.80 335.10 L 321.90 335.40 L 326.10 335.10 L 330.40 334.20 L 334.90 332.60 L 339.50 330.30 L 344.40 327.00 L 343.40 334.70 L 338.90 338.70 L 334.10 342.10 L 329.00 345.00 L 323.60 347.30 L 317.90 349.20 L 311.90 350.60 L 305.40 351.40 L 298.50 351.70 L 301.10 327.00 Z" fill="#e1806a" fill-rule="evenodd" group-id="3" node-id="195" stroke="none" target-height="24.700012" target-width="45.899994" target-x="298.5" target-y="327"/></g><g node-id="352"><path d="M 290.20 289.20 L 291.70 295.60 L 293.30 300.30 L 295.00 303.70 L 296.60 306.00 L 298.20 307.50 L 299.70 308.40 L 301.40 308.80 L 303.10 308.70 L 317.50 305.40 L 321.50 305.10 L 325.70 305.30 L 331.40 306.60 L 338.80 309.90 L 341.90 310.90 L 343.80 311.10 L 345.40 310.70 L 346.80 309.90 L 348.00 308.60 L 349.20 306.50 L 350.40 303.20 L 352.00 297.70 L 353.80 289.20 L 353.50 296.90 L 352.80 303.60 L 351.80 309.30 L 350.50 314.30 L 349.10 318.60 L 347.50 322.20 L 345.80 324.90 L 343.80 327.50 L 341.40 329.90 L 338.70 332.10 L 335.70 333.90 L 332.40 335.40 L 329.00 336.50 L 325.30 337.10 L 321.30 337.40 L 317.30 337.10 L 313.10 336.30 L 308.60 334.80 L 305.70 333.40 L 303.00 331.50 L 300.50 329.00 L 298.20 326.00 L 296.20 322.30 L 294.30 317.80 L 292.80 312.30 L 291.50 305.90 L 290.60 298.20 L 290.20 289.20 Z" fill="#2c1919" fill-rule="nonzero" group-id="4" node-id="200" stroke="none" target-height="48.19998" target-width="63.599976" target-x="290.2" target-y="289.2"/><path d="M 290.20 287.40 L 291.50 296.10 L 293.20 303.60 L 295.00 309.90 L 297.10 315.30 L 299.40 319.70 L 301.90 323.40 L 304.40 326.50 L 307.20 328.90 L 310.10 330.80 L 313.10 332.20 L 316.40 333.10 L 320.00 333.60 L 323.90 333.50 L 328.60 332.90 L 333.00 331.80 L 337.00 330.20 L 340.70 328.20 L 344.00 325.80 L 347.10 322.80 L 350.00 319.30 L 347.50 324.10 L 344.90 328.10 L 342.30 331.30 L 339.50 333.90 L 334.20 337.00 L 326.40 339.70 L 322.00 340.60 L 317.50 341.00 L 311.50 340.50 L 308.70 339.70 L 306.10 338.50 L 303.60 336.90 L 301.40 334.80 L 298.40 330.80 L 295.80 326.40 L 293.70 321.60 L 292.10 316.30 L 290.90 310.40 L 290.20 303.90 L 289.60 289.20 L 290.20 287.40 Z" fill="#160f0f" fill-rule="evenodd" group-id="4" node-id="202" stroke="none" target-height="53.600006" target-width="60.399994" target-x="289.6" target-y="287.4"/></g><path d="M 313.50 313.90 L 331.00 313.90 L 329.00 317.10 L 327.10 319.20 L 325.30 320.60 L 323.40 321.30 L 321.60 321.40 L 319.60 321.00 L 317.90 320.20 L 316.30 318.80 L 314.90 316.70 L 313.50 313.90 Z" fill="#eeecea" fill-rule="evenodd" node-id="205" stroke="none" target-height="7.5" target-width="17.5" target-x="313.5" target-y="313.9"/><path d="M 307.10 292.80 L 309.40 292.50 L 311.30 291.70 L 313.00 290.30 L 314.40 288.60 L 315.20 286.70 L 315.50 284.40 L 315.20 282.10 L 314.40 280.20 L 313.00 278.50 L 311.30 277.10 L 309.40 276.30 L 307.10 276.00 L 304.90 276.30 L 302.90 277.10 L 301.20 278.50 L 299.90 280.20 L 299.00 282.10 L 298.70 284.40 L 299.00 286.70 L 299.90 288.60 L 301.20 290.30 L 302.90 291.70 L 304.90 292.50 L 307.10 292.80 Z" fill="none" node-id="207" stroke="#000000" stroke-linecap="butt" stroke-width="1.2" target-height="16.799988" target-width="16.799988" target-x="298.7" target-y="276"/><path d="M 331.10 292.80 L 333.40 292.50 L 335.30 291.70 L 337.00 290.30 L 338.40 288.60 L 339.20 286.70 L 339.50 284.40 L 339.20 282.10 L 338.40 280.20 L 337.00 278.50 L 335.30 277.10 L 333.40 276.30 L 331.10 276.00 L 328.90 276.30 L 326.90 277.10 L 325.20 278.50 L 323.90 280.20 L 323.00 282.10 L 322.70 284.40 L 323.00 286.70 L 323.90 288.60 L 325.20 290.30 L 326.90 291.70 L 328.90 292.50 L 331.10 292.80 Z" fill="none" node-id="209" stroke="#000000" stroke-linecap="butt" stroke-width="1.2" target-height="16.799988" target-width="16.799988" target-x="322.7" target-y="276"/><path d="M 315.50 283.80 L 322.70 283.80" fill="none" node-id="211" stroke="#000000" stroke-linecap="butt" stroke-width="1.2" target-height="0" target-width="7.200012" target-x="315.5" target-y="283.8"/><path d="M 339.50 283.80 L 354.40 275.80" fill="none" node-id="213" stroke="#000000" stroke-linecap="butt" stroke-width="1.2" target-height="8" target-width="14.899994" target-x="339.5" target-y="275.8"/><path d="M 299.20 283.80 L 288.10 274.50" fill="none" node-id="215" stroke="#000000" stroke-linecap="butt" stroke-width="1.2" target-height="9.299988" target-width="11.100006" target-x="288.1" target-y="274.5"/><g node-id="353"><path d="M 132.00 473.50 L 125.90 467.40 L 120.90 463.10 L 116.80 460.20 L 113.40 458.40 L 110.70 457.50 L 108.50 457.20 L 98.80 456.90 L 78.70 455.60 L 78.30 457.40 L 78.40 458.90 L 78.90 460.20 L 79.70 461.30 L 81.00 462.30 L 66.80 461.20 L 57.90 461.00 L 52.80 461.20 L 50.20 461.70 L 49.10 462.20 L 48.00 463.80 L 48.50 465.30 L 51.60 467.30 L 51.00 468.20 L 51.00 469.10 L 51.50 470.00 L 52.90 471.20 L 55.70 472.60 L 55.50 473.60 L 55.80 474.50 L 56.70 475.40 L 58.30 476.30 L 61.00 477.30 L 65.30 478.20 L 65.50 479.20 L 66.10 480.10 L 67.40 481.20 L 69.70 482.30 L 79.40 485.00 L 96.90 488.50 L 105.10 489.70 L 114.60 490.40 L 118.50 491.10 L 122.80 492.40 L 127.70 494.20 L 132.00 473.50 Z" fill="#ff927a" fill-rule="nonzero" group-id="5" node-id="219" stroke="none" target-height="38.600006" target-width="84" target-x="48" target-y="455.6"/><path d="M 65.30 478.20 L 65.50 477.60 L 66.30 477.30 L 68.40 477.30 L 80.70 479.60 L 87.90 480.30 L 92.50 480.30 L 93.30 480.10 L 97.50 476.70 L 102.30 474.90 L 106.00 474.20 L 110.20 473.90 L 116.10 473.90" fill="none" group-id="5" node-id="221" stroke="#7d1c1c" stroke-linecap="butt" stroke-width="1" target-height="6.399994" target-width="50.799995" target-x="65.3" target-y="473.9"/><path d="M 55.70 472.60 L 56.30 472.10 L 58.10 471.70 L 62.20 471.60 L 69.90 472.20 L 83.10 473.80" fill="none" group-id="5" node-id="223" stroke="#7d1c1c" stroke-linecap="butt" stroke-width="1" target-height="2.1999817" target-width="27.399998" target-x="55.7" target-y="471.6"/><path d="M 51.60 467.30 L 53.50 466.80 L 56.80 466.40 L 62.40 466.30 L 71.00 466.80 L 83.70 468.00" fill="none" group-id="5" node-id="225" stroke="#7d1c1c" stroke-linecap="butt" stroke-width="1" target-height="1.7000122" target-width="32.1" target-x="51.6" target-y="466.3"/><path d="M 83.70 466.30 L 83.00 468.80 L 82.80 471.10 L 83.10 473.30 L 83.80 475.40 L 85.20 477.50" fill="none" group-id="5" node-id="227" stroke="#7d1c1c" stroke-linecap="butt" stroke-width="1" target-height="11.200012" target-width="2.399994" target-x="82.8" target-y="466.3"/><path d="M 81.00 462.30 L 87.70 463.20 L 93.20 463.40" fill="none" group-id="5" node-id="229" stroke="#7d1c1c" stroke-linecap="butt" stroke-width="1" target-height="1.1000061" target-width="12.199997" target-x="81" target-y="462.3"/></g><g node-id="354"><path d="M 343.10 338.70 L 365.70 348.30 L 373.50 351.20 L 389.20 354.20 L 395.10 355.80 L 401.60 358.00 L 410.20 362.20 L 414.40 364.90 L 418.40 367.90 L 422.10 371.50 L 425.60 375.60 L 427.80 379.00 L 429.90 382.70 L 431.60 386.80 L 435.30 399.80 L 440.10 421.20 L 444.70 446.10 L 446.80 459.10 L 450.00 485.00 L 451.10 497.50 L 451.60 509.00 L 451.60 516.60 L 450.80 529.30 L 449.90 535.20 L 448.60 539.90 L 447.20 543.50 L 438.50 560.40 L 425.00 585.20 L 405.30 620.10 L 405.30 647.70 L 307.70 647.70 L 301.10 593.20 L 277.20 645.00 L 230.90 627.40 L 243.90 583.60 L 251.80 555.30 L 256.10 538.30 L 257.90 529.10 L 258.30 524.70 L 258.10 516.10 L 256.90 500.00 L 254.30 473.00 L 248.50 484.10 L 243.10 493.30 L 238.20 500.80 L 233.70 506.90 L 229.50 511.70 L 225.70 515.40 L 222.30 518.10 L 219.00 520.10 L 216.00 521.40 L 213.20 522.10 L 209.00 522.50 L 203.00 522.40 L 194.50 521.60 L 183.10 519.90 L 168.00 517.00 L 148.60 512.70 L 124.10 506.60 L 132.10 466.20 L 202.10 476.20 L 207.50 455.90 L 212.60 438.60 L 217.40 423.90 L 222.00 411.60 L 226.30 401.40 L 230.40 393.00 L 234.20 386.30 L 237.70 380.90 L 241.10 376.80 L 244.20 373.70 L 247.10 371.40 L 249.90 369.80 L 272.60 359.80 L 288.60 353.10 L 302.00 345.70 L 304.70 349.40 L 307.40 352.20 L 310.00 354.20 L 312.70 355.60 L 315.30 356.40 L 318.10 356.60 L 320.10 356.40 L 322.60 355.70 L 325.50 354.30 L 328.80 352.10 L 332.90 348.90 L 337.60 344.50 L 343.10 338.70 Z M 400.30 491.50 L 398.30 496.40 L 396.80 501.50 L 395.80 507.00 L 395.40 512.70 L 395.60 518.80 L 396.50 525.30 L 398.00 532.30 L 400.30 539.80 L 406.40 520.80 L 400.30 491.50 Z" fill="#ffffff" fill-rule="nonzero" group-id="6" node-id="234" stroke="none" target-height="309" target-width="327.5" target-x="124.1" target-y="338.7"/><path d="M 300.90 344.20 L 265.60 374.50 L 284.60 380.90 L 269.40 390.00 L 304.90 487.70 L 300.90 344.20 Z" fill="#e7eeff" fill-rule="evenodd" group-id="6" node-id="236" stroke="none" target-height="143.5" target-width="39.299988" target-x="265.6" target-y="344.2"/><path d="M 343.40 338.40 L 356.00 343.00 L 375.50 373.20 L 354.00 378.20 L 369.20 393.40 L 304.90 487.90 L 341.00 351.00 L 343.40 338.40 Z" fill="#e7eeff" fill-rule="evenodd" group-id="6" node-id="238" stroke="none" target-height="149.5" target-width="70.600006" target-x="304.9" target-y="338.4"/><g node-id="358"><path d="M 300.90 345.80 L 298.80 357.50 L 297.20 369.80 L 296.10 382.50 L 295.50 395.70 L 295.50 409.50 L 296.10 423.90 L 297.30 438.80 L 299.20 454.40 L 301.70 470.70 L 304.90 487.70 L 310.90 476.60 L 316.40 465.10 L 321.40 453.10 L 326.00 440.80 L 330.20 427.90 L 333.90 414.60 L 337.10 400.70 L 339.80 386.30 L 342.10 371.40 L 343.80 355.80 L 345.00 339.70 L 317.80 353.10 L 300.90 345.80 Z" fill="#77c5ff" fill-rule="nonzero" group-id="6,10" node-id="242" stroke="none" target-height="148" target-width="49.5" target-x="295.5" target-y="339.7"/><path d="M 306.50 368.30 L 313.20 378.90 L 319.00 378.90 L 329.30 367.70 L 321.90 357.10 L 308.20 357.10 L 306.50 368.30 Z" fill="#0446c9" fill-rule="evenodd" group-id="6,10" node-id="244" stroke="none" target-height="21.799988" target-width="22.799988" target-x="306.5" target-y="357.1"/><path d="M 313.20 378.90 L 296.60 456.60 L 296.80 464.70 L 297.50 471.60 L 298.50 477.30 L 299.80 482.00 L 301.30 485.80 L 303.00 489.00 L 304.90 491.50 L 326.20 442.20 L 319.00 378.90 L 313.20 378.90 Z" fill="#004de6" fill-rule="evenodd" group-id="6,10" node-id="246" stroke="none" target-height="112.600006" target-width="29.600006" target-x="296.6" target-y="378.9"/></g><path d="M 300.90 344.20 L 296.60 377.10 L 318.10 357.30 L 339.70 378.20 L 342.20 371.60 L 344.00 365.30 L 345.20 359.30 L 345.80 353.40 L 345.90 347.80 L 345.40 342.20 L 344.40 336.90 L 343.50 334.30 L 342.40 332.30 L 341.00 330.80 L 339.20 329.70 L 337.10 329.00 L 334.50 328.80 L 331.30 329.00 L 327.40 330.00 L 322.60 331.70 L 316.70 334.50 L 309.50 338.60 L 300.90 344.20 Z" fill="#41a3ff" fill-rule="evenodd" group-id="6" node-id="249" stroke="none" target-height="49.400024" target-width="49.299988" target-x="296.6" target-y="328.8"/><path d="M 304.90 485.90 L 300.70 595.40" fill="none" group-id="6" node-id="251" stroke="#e7eeff" stroke-linecap="butt" stroke-width="1" target-height="109.50003" target-width="4.1999817" target-x="300.7" target-y="485.9"/><path d="M 313.60 497.70 L 315.00 497.40 L 316.10 496.70 L 316.80 495.60 L 317.10 494.20 L 316.80 492.80 L 316.10 491.70 L 315.00 491.00 L 313.60 490.70 L 312.20 491.00 L 311.10 491.70 L 310.40 492.80 L 310.10 494.20 L 310.40 495.60 L 311.10 496.70 L 312.20 497.40 L 313.60 497.70 Z" fill="#737373" fill-rule="nonzero" group-id="6" node-id="253" stroke="none" target-height="7" target-width="7" target-x="310.1" target-y="490.7"/><path d="M 313.60 537.70 L 315.00 537.40 L 316.10 536.70 L 316.80 535.60 L 317.10 534.20 L 316.80 532.80 L 316.10 531.70 L 315.00 531.00 L 313.60 530.70 L 312.20 531.00 L 311.10 531.70 L 310.40 532.80 L 310.10 534.20 L 310.40 535.60 L 311.10 536.70 L 312.20 537.40 L 313.60 537.70 Z" fill="#737373" fill-rule="nonzero" group-id="6" node-id="255" stroke="none" target-height="7" target-width="7" target-x="310.1" target-y="530.7"/><path d="M 400.30 539.80 L 371.00 600.50 L 406.40 621.30 L 406.40 648.70 L 379.40 648.70 L 366.30 598.20 L 400.30 539.80 Z" fill="#e7eeff" fill-rule="evenodd" group-id="6" node-id="257" stroke="none" target-height="108.900024" target-width="40.100006" target-x="366.3" target-y="539.8"/><path d="M 406.60 521.00 L 399.60 540.80 L 375.50 591.50 L 374.80 583.30 L 374.50 574.30 L 374.80 564.20 L 375.50 553.20 L 376.90 541.00 L 379.00 527.60 L 381.80 512.90 L 385.40 496.70 L 390.00 479.10 L 395.40 459.90 L 400.90 498.70 L 406.60 521.00 Z" fill="#e7eeff" fill-rule="evenodd" group-id="6" node-id="259" stroke="none" target-height="131.6" target-width="32.100006" target-x="374.5" target-y="459.9"/><path d="M 444.60 587.50 L 333.30 551.30 L 308.90 626.40 L 420.20 662.60 L 444.60 587.50 Z" fill="#13bb84" fill-rule="nonzero" group-id="6" node-id="261" stroke="none" target-height="111.29999" target-width="135.70001" target-x="308.9" target-y="551.3"/><path d="M 251.80 448.80 L 256.70 499.60 L 224.50 525.00 L 251.80 448.80 Z" fill="#e7eeff" fill-rule="evenodd" group-id="6" node-id="263" stroke="none" target-height="76.20001" target-width="32.200012" target-x="224.5" target-y="448.8"/><path d="M 202.10 476.20 L 204.00 478.30 L 205.50 481.00 L 206.60 484.30 L 207.40 488.30 L 204.00 484.60 L 200.40 481.50 L 196.70 478.80 L 192.80 476.50 L 188.60 474.80 L 184.20 473.40 L 200.30 474.40 L 202.10 476.20 Z" fill="#e7eeff" fill-rule="evenodd" group-id="6" node-id="265" stroke="none" target-height="14.899994" target-width="23.199997" target-x="184.2" target-y="473.4"/><path d="M 405.50 520.40 L 410.20 520.30 L 414.40 520.80 L 418.20 521.70 L 421.50 523.10 L 424.60 524.90 L 417.20 527.90 L 411.40 530.70 L 407.10 533.30 L 403.80 535.70 L 401.50 537.90 L 399.90 540.00 L 405.50 520.40 Z" fill="#e7eeff" fill-rule="evenodd" group-id="6" node-id="267" stroke="none" target-height="19.700012" target-width="24.700012" target-x="399.9" target-y="520.3"/><path d="M 387.40 566.50 L 371.00 600.50 L 405.10 620.70 L 427.80 580.00 L 387.40 566.50 Z" fill="#ffffff" fill-rule="evenodd" group-id="6" node-id="269" stroke="none" target-height="54.200012" target-width="56.799988" target-x="371" target-y="566.5"/><path d="M 445.50 446.70 L 437.30 460.20 L 430.70 472.00 L 425.40 482.30 L 421.40 491.30 L 418.40 499.10 L 416.30 505.80 L 415.00 511.50 L 414.30 516.40 L 414.20 520.60 L 414.50 524.10 L 415.10 526.00 L 416.20 527.80 L 417.90 529.40 L 420.30 531.00 L 423.60 532.50 L 428.10 533.80 L 433.90 535.00 L 441.40 535.80 L 450.90 536.30 L 459.40 507.50 L 445.50 446.70 Z" fill="#e7eeff" fill-rule="evenodd" group-id="6" node-id="271" stroke="none" target-height="89.599976" target-width="45.19998" target-x="414.2" target-y="446.7"/></g><path d="M 375.10 602.40 L 397.70 615.70 L 394.40 620.40 L 390.30 627.90 L 389.30 630.80 L 388.20 635.90 L 385.60 642.20 L 381.90 648.20 L 378.90 651.50 L 377.20 652.30 L 366.30 651.90 L 358.40 651.40 L 349.30 650.00 L 348.30 649.60 L 346.30 646.50 L 344.80 642.20 L 344.60 640.10 L 345.00 638.50 L 347.10 639.10 L 348.70 639.00 L 350.00 638.30 L 351.00 637.10 L 355.10 629.00 L 353.10 630.80 L 351.20 632.10 L 349.20 632.90 L 347.10 633.30 L 345.00 633.30 L 344.50 632.90 L 344.40 632.20 L 345.30 630.40 L 349.90 624.60 L 355.00 615.60 L 356.50 613.80 L 358.30 612.30 L 365.60 608.80 L 370.40 606.00 L 375.10 602.40 Z" fill="#ff927a" fill-rule="evenodd" node-id="274" stroke="none" target-height="49.899963" target-width="53.30002" target-x="344.4" target-y="602.4"/><path d="M 320.00 622.90 L 340.40 561.60" fill="none" node-id="276" stroke="#ffffff" stroke-linecap="butt" stroke-width="1" target-height="61.30005" target-width="20.399994" target-x="320" target-y="561.6"/><path d="M 329.00 626.90 L 349.40 565.60" fill="none" node-id="278" stroke="#ffffff" stroke-linecap="butt" stroke-width="1" target-height="61.30005" target-width="20.399994" target-x="329" target-y="565.6"/><path d="M 338.00 629.90 L 358.40 568.60" fill="none" node-id="280" stroke="#ffffff" stroke-linecap="butt" stroke-width="1" target-height="61.30005" target-width="20.399994" target-x="338" target-y="568.6"/><g node-id="355"><path d="M 602.60 614.20 L 604.20 624.20 L 605.20 634.00 L 605.70 643.50 L 605.60 652.90 L 604.90 662.10 L 603.70 671.10 L 601.90 679.90 L 599.60 688.70 L 596.80 697.30 L 458.80 697.30 L 457.90 679.90 L 457.50 664.70 L 457.70 651.40 L 458.40 639.90 L 459.40 630.00 L 460.80 621.50 L 468.40 591.00 L 472.20 574.40 L 474.30 563.00 L 475.10 555.60 L 475.20 551.00 L 474.80 548.50 L 474.20 547.20 L 473.50 546.70 L 581.00 552.30 L 584.10 557.00 L 587.20 562.70 L 590.40 569.80 L 593.50 578.20 L 596.60 588.30 L 599.70 600.30 L 602.60 614.20 Z" fill="#004de6" fill-rule="nonzero" group-id="7" node-id="284" stroke="none" target-height="150.59998" target-width="148.20001" target-x="457.5" target-y="546.7"/><path d="M 474.90 556.60 L 478.70 558.70 L 482.50 561.50 L 486.50 565.00 L 490.50 569.40 L 494.60 574.70 L 498.80 581.00 L 503.20 588.50 L 507.60 597.40 L 512.20 607.70 L 516.80 619.50 L 521.50 633.20 L 523.20 639.30 L 524.40 645.40 L 525.20 651.50 L 525.60 657.70 L 525.50 666.00 L 524.80 674.30 L 523.50 682.60 L 521.70 691.00 L 517.10 707.40 L 512.90 719.60 L 508.30 731.40 L 494.70 764.40 L 491.10 774.00 L 487.50 786.20 L 486.00 795.40 L 486.30 802.30 L 487.00 805.30 L 488.30 808.50 L 490.10 811.30 L 492.30 813.90 L 495.10 816.10 L 498.50 818.00 L 502.70 819.70 L 507.70 821.00 L 513.60 821.90 L 520.70 822.30 L 529.00 822.10 L 538.80 821.30 L 550.20 819.60 L 563.40 817.10 L 578.70 813.50 L 578.00 802.50 L 577.90 792.40 L 578.20 783.10 L 579.00 774.50 L 580.20 766.60 L 581.80 759.30 L 583.80 752.60 L 591.90 731.20 L 597.80 712.30 L 600.50 702.00 L 602.90 691.20 L 604.90 680.10 L 607.00 661.60 L 607.40 647.30 L 607.10 640.30 L 606.40 633.70 L 602.80 614.90 L 600.70 602.50 L 599.10 590.20 L 598.00 577.90 L 597.40 565.60 L 597.10 553.40 L 546.90 559.50 L 474.90 556.60 Z" fill="#0446c9" fill-rule="evenodd" group-id="7" node-id="286" stroke="none" target-height="268.89996" target-width="132.50003" target-x="474.9" target-y="553.4"/></g><g node-id="356"><path d="M 525.60 380.70 L 547.60 383.30 L 579.60 392.10 L 597.90 397.60 L 607.10 400.80 L 610.90 402.50 L 613.60 404.20 L 616.60 406.80 L 619.90 411.30 L 622.60 417.20 L 623.40 420.80 L 623.90 425.00 L 624.00 429.20 L 623.50 434.20 L 622.50 439.90 L 616.60 462.00 L 611.10 479.40 L 604.40 497.30 L 596.80 514.10 L 592.80 521.70 L 588.70 528.30 L 595.80 553.00 L 601.60 574.60 L 606.00 593.40 L 609.40 609.60 L 611.70 623.40 L 613.20 635.20 L 552.00 635.10 L 556.80 561.70 L 547.60 563.90 L 538.90 565.50 L 530.50 566.60 L 522.40 567.10 L 514.70 567.10 L 507.20 566.60 L 500.00 565.60 L 493.00 564.20 L 486.20 562.20 L 479.60 559.80 L 473.70 624.10 L 452.60 627.10 L 467.80 530.50 L 455.10 530.70 L 445.00 530.20 L 438.10 529.40 L 432.70 528.20 L 428.50 526.70 L 425.20 525.00 L 422.80 523.20 L 421.00 521.30 L 419.90 519.20 L 419.20 516.80 L 419.00 514.20 L 419.40 511.20 L 420.80 506.10 L 423.40 498.80 L 430.30 481.50 L 439.00 461.60 L 448.60 441.40 L 457.80 422.90 L 465.50 408.30 L 470.60 399.90 L 473.90 396.10 L 477.60 392.40 L 480.40 390.30 L 483.70 388.20 L 487.70 386.30 L 491.80 384.80 L 496.90 383.40 L 503.00 382.20 L 509.20 381.40 L 525.60 380.70 Z" fill="#ffffff" fill-rule="nonzero" group-id="8" node-id="291" stroke="none" target-height="254.5" target-width="205" target-x="419" target-y="380.7"/><path d="M 479.10 529.50 L 480.20 549.50 L 479.60 559.80 L 481.70 562.30 L 484.30 564.40 L 487.50 566.40 L 491.40 568.10 L 496.20 569.50 L 501.90 570.50 L 508.80 571.20 L 516.90 571.40 L 526.10 571.00 L 533.90 570.20 L 540.40 569.00 L 545.80 567.50 L 550.20 565.80 L 553.80 563.80 L 556.80 561.70 L 555.40 551.00 L 543.10 550.00 L 532.30 548.50 L 522.90 546.80 L 514.80 544.90 L 506.80 542.30 L 498.30 539.00 L 489.00 534.70 L 479.10 529.50 Z" fill="#41a3ff" fill-rule="evenodd" group-id="8" node-id="293" stroke="none" target-height="41.900024" target-width="77.69998" target-x="479.1" target-y="529.5"/><path d="M 537.80 378.20 L 532.20 379.40 L 527.50 380.80 L 523.50 382.50 L 520.20 384.50 L 517.40 386.60 L 515.20 389.00 L 485.70 435.70 L 478.00 449.00 L 474.80 455.30 L 471.10 463.90 L 470.00 468.70 L 470.10 472.60 L 471.20 481.10 L 473.80 496.90 L 479.40 498.00 L 483.10 498.40 L 502.10 498.30 L 518.50 496.70 L 526.30 495.50 L 532.40 493.90 L 536.80 492.20 L 544.00 489.00 L 547.30 488.80 L 551.40 490.20 L 552.60 475.50 L 559.20 444.70 L 561.90 428.10 L 563.60 412.20 L 563.80 404.80 L 563.50 398.60 L 563.00 394.70 L 562.20 391.60 L 561.30 389.20 L 559.30 386.00 L 557.00 383.40 L 554.60 381.30 L 551.90 379.70 L 549.00 378.60 L 545.70 377.90 L 542.00 377.80 L 537.80 378.20 Z" fill="#77c5ff" fill-rule="evenodd" group-id="8" node-id="295" stroke="none" target-height="120.600006" target-width="93.79999" target-x="470" target-y="377.8"/><path d="M 553.70 550.90 L 558.40 550.20 L 563.00 548.90 L 567.50 547.00 L 571.90 544.60 L 576.20 541.60 L 580.40 537.90 L 584.60 533.50 L 588.70 528.30 L 596.60 551.80 L 601.70 571.40 L 553.70 550.90 Z" fill="#e7eeff" fill-rule="evenodd" group-id="8" node-id="297" stroke="none" target-height="43.100037" target-width="48" target-x="553.7" target-y="528.3"/><path d="M 557.90 495.70 L 578.90 438.90 L 555.60 493.50 L 557.90 495.70 Z" fill="#e7eeff" fill-rule="evenodd" group-id="8" node-id="299" stroke="none" target-height="56.80002" target-width="23.300049" target-x="555.6" target-y="438.9"/><path d="M 479.90 539.80 L 479.10 529.50 L 466.40 530.70 L 479.90 539.80 Z" fill="#e7eeff" fill-rule="evenodd" group-id="8" node-id="301" stroke="none" target-height="10.299988" target-width="13.5" target-x="466.4" target-y="529.5"/><path d="M 452.30 488.70 L 474.90 431.50 L 466.70 453.30 L 462.50 465.50 L 460.80 471.50 L 460.40 473.80 L 460.90 477.20 L 462.60 484.00 L 466.40 496.20 L 452.30 488.70 Z" fill="#e7eeff" fill-rule="evenodd" group-id="8" node-id="303" stroke="none" target-height="64.70001" target-width="22.600006" target-x="452.3" target-y="431.5"/></g><path d="M 539.20 286.00 L 542.80 285.60 L 546.10 284.70 L 549.20 283.30 L 552.00 281.30 L 554.30 278.90 L 556.30 276.10 L 557.80 273.00 L 558.70 269.60 L 559.00 266.00 L 558.70 262.30 L 557.80 259.00 L 556.30 255.90 L 554.30 253.10 L 552.00 250.70 L 549.20 248.70 L 546.10 247.30 L 542.80 246.30 L 539.20 246.00 L 535.60 246.30 L 532.30 247.30 L 529.20 248.70 L 526.40 250.70 L 524.10 253.10 L 522.10 255.90 L 520.60 259.00 L 519.70 262.30 L 519.40 266.00 L 519.70 269.60 L 520.60 273.00 L 522.10 276.10 L 524.10 278.90 L 526.40 281.30 L 529.20 283.30 L 532.30 284.70 L 535.60 285.60 L 539.20 286.00 Z" fill="#7d1c1c" fill-rule="nonzero" node-id="306" stroke="none" target-height="40" target-width="39.599976" target-x="519.4" target-y="246"/><path d="M 510.50 344.00 L 507.70 336.50 L 505.60 329.20 L 503.90 322.10 L 502.90 315.10 L 502.30 308.30 L 502.30 301.60 L 502.70 295.00 L 503.60 288.50 L 505.50 282.30 L 508.40 277.40 L 510.90 274.50 L 513.70 272.20 L 516.90 270.20 L 520.30 268.60 L 527.70 266.40 L 535.60 265.50 L 539.60 265.60 L 545.50 266.10 L 554.60 268.20 L 560.60 270.80 L 563.60 272.60 L 566.30 274.90 L 568.80 277.60 L 571.00 280.80 L 572.80 284.20 L 574.30 288.00 L 575.50 292.30 L 576.40 297.00 L 576.80 301.70 L 576.80 306.80 L 576.40 312.40 L 575.50 318.40 L 574.20 324.20 L 572.40 330.40 L 570.00 337.00 L 567.00 344.00 L 564.50 348.80 L 561.90 352.60 L 559.30 355.70 L 556.50 358.10 L 553.70 359.90 L 550.70 361.20 L 547.60 362.00 L 544.30 362.20 L 540.70 361.90 L 536.80 361.00 L 532.50 359.40 L 527.80 357.10 L 522.60 353.80 L 516.90 349.50 L 510.50 344.00 Z" fill="#7d1c1c" fill-rule="evenodd" node-id="308" stroke="none" target-height="96.70001" target-width="74.5" target-x="502.3" target-y="265.5"/><path d="M 542.30 246.50 L 546.40 247.20 L 549.80 248.30 L 552.50 249.70 L 554.80 251.40 L 556.50 253.40 L 557.90 255.80 L 558.90 258.50 L 559.40 261.80 L 559.50 265.60 L 559.00 270.10 L 562.90 271.60 L 566.30 273.50 L 569.20 275.80 L 571.60 278.40 L 573.60 281.40 L 575.20 284.80 L 576.50 288.70 L 577.30 293.20 L 577.60 298.30 L 577.30 304.10 L 576.50 310.80 L 574.90 318.50" fill="none" node-id="310" stroke="#7d1c1c" stroke-linecap="butt" stroke-width="1.326" target-height="72" target-width="35.299988" target-x="542.3" target-y="246.5"/><path d="M 519.40 268.90 L 523.80 267.10 L 528.30 265.90 L 533.00 265.20 L 537.70 265.00 L 542.70 265.40 L 547.90 266.30 L 553.30 267.90 L 559.00 270.10" fill="none" node-id="312" stroke="#ffffff" stroke-linecap="butt" stroke-width="1.326" target-height="5.100006" target-width="39.599976" target-x="519.4" target-y="265"/><g node-id="357"><path d="M 575.90 320.10 L 575.20 319.00 L 574.30 318.30 L 573.10 318.00 L 571.40 318.10 L 569.20 318.80 L 569.00 310.50 L 549.70 309.40 L 541.70 308.00 L 536.80 306.30 L 531.10 303.80 L 524.60 300.20 L 517.10 295.30 L 514.80 299.20 L 512.80 301.90 L 511.00 303.60 L 509.20 304.60 L 509.20 318.30 L 506.90 317.50 L 505.10 317.40 L 503.90 317.80 L 502.90 318.60 L 502.30 320.10 L 502.00 321.80 L 502.30 324.20 L 503.90 329.30 L 506.30 333.80 L 507.70 335.50 L 508.70 336.30 L 510.10 343.10 L 511.90 349.10 L 514.10 354.50 L 516.70 359.30 L 519.60 363.60 L 520.40 374.90 L 520.50 382.70 L 520.20 387.90 L 518.30 396.70 L 518.20 399.80 L 518.60 402.90 L 519.30 404.80 L 520.40 406.60 L 522.00 408.40 L 523.90 409.70 L 526.60 411.00 L 530.20 412.00 L 533.20 412.30 L 536.00 412.10 L 538.70 411.50 L 541.40 410.40 L 546.20 407.40 L 549.50 404.60 L 554.70 398.40 L 556.50 395.60 L 558.30 391.10 L 558.60 387.20 L 558.70 378.90 L 558.30 363.60 L 560.30 360.80 L 562.40 357.00 L 564.60 351.80 L 566.80 345.00 L 569.00 336.30 L 571.10 335.00 L 572.30 333.60 L 574.60 329.50 L 576.20 324.40 L 576.30 322.00 L 575.90 320.10 Z" fill="#ffae9c" fill-rule="nonzero" group-id="9" node-id="316" stroke="none" target-height="117" target-width="74.29999" target-x="502" target-y="295.3"/><path d="M 536.10 324.10 L 536.10 344.50 L 537.20 345.50 L 539.50 346.20 L 541.80 345.50 L 543.00 344.50" fill="none" group-id="9" node-id="318" stroke="#000000" stroke-linecap="butt" stroke-width="1.326" target-height="22.100006" target-width="6.9000244" target-x="536.1" target-y="324.1"/><path d="M 548.50 328.70 L 549.70 328.00 L 550.30 326.20 L 549.70 324.40 L 548.50 323.60 L 547.20 324.40 L 546.70 326.20 L 547.20 328.00 L 548.50 328.70 Z" fill="#000000" fill-rule="nonzero" group-id="9" node-id="320" stroke="none" target-height="5.100006" target-width="3.5999756" target-x="546.7" target-y="323.6"/><path d="M 525.80 328.70 L 527.10 328.00 L 527.60 326.20 L 527.10 324.40 L 525.80 323.60 L 524.50 324.40 L 524.00 326.20 L 524.50 328.00 L 525.80 328.70 Z" fill="#000000" fill-rule="nonzero" group-id="9" node-id="322" stroke="none" target-height="5.100006" target-width="3.5999756" target-x="524" target-y="323.6"/><path d="M 520.60 318.90 L 523.40 318.10 L 526.00 317.80 L 528.60 318.10 L 531.20 318.90" fill="none" group-id="9" node-id="324" stroke="#000000" stroke-linecap="butt" stroke-width="1.326" target-height="1.1000061" target-width="10.600037" target-x="520.6" target-y="317.8"/><path d="M 553.80 318.90 L 551.10 318.10 L 548.40 317.80 L 545.80 318.10 L 543.20 318.90" fill="none" group-id="9" node-id="326" stroke="#000000" stroke-linecap="butt" stroke-width="1.326" target-height="1.1000061" target-width="10.599976" target-x="543.2" target-y="317.8"/><path d="M 531.30 353.50 L 539.30 354.50 L 547.60 353.50 L 545.90 356.00 L 544.10 357.60 L 542.40 358.70 L 540.70 359.30 L 538.80 359.40 L 537.00 359.10 L 535.40 358.40 L 533.90 357.30 L 532.50 355.70 L 531.30 353.50 Z" fill="#eeecea" fill-rule="evenodd" group-id="9" node-id="328" stroke="none" target-height="5.899994" target-width="16.299988" target-x="531.3" target-y="353.5"/><path d="M 518.10 362.00 L 521.90 365.70 L 525.60 368.50 L 529.10 370.60 L 532.50 372.00 L 535.80 372.80 L 539.00 373.10 L 542.30 372.80 L 545.60 372.00 L 549.00 370.60 L 552.40 368.50 L 556.10 365.70 L 559.90 362.00 L 559.20 369.70 L 556.30 372.90 L 553.10 375.90 L 549.70 378.50 L 545.90 380.80 L 541.80 382.70 L 536.60 384.70 L 524.70 388.00 L 518.10 389.20 L 518.10 362.00 Z" fill="#f99b86" fill-rule="evenodd" group-id="9" node-id="330" stroke="none" target-height="27.200012" target-width="41.80005" target-x="518.1" target-y="362"/></g><path d="M 506.60 336.60 L 507.50 336.40 L 508.70 335.10 L 508.70 333.30 L 507.50 332.00 L 505.70 332.00 L 504.40 333.30 L 504.40 335.10 L 505.70 336.40 L 506.60 336.60 Z" fill="#0091ff" fill-rule="nonzero" node-id="333" stroke="none" target-height="4.600006" target-width="4.3000183" target-x="504.4" target-y="332"/><path d="M 570.70 336.60 L 571.60 336.40 L 572.80 335.10 L 572.80 333.30 L 571.60 332.00 L 569.80 332.00 L 568.50 333.30 L 568.50 335.10 L 569.80 336.40 L 570.70 336.60 Z" fill="#0091ff" fill-rule="nonzero" node-id="335" stroke="none" target-height="4.600006" target-width="4.299988" target-x="568.5" target-y="332"/><path d="M 517.00 294.10 L 521.40 298.40 L 525.90 302.10 L 530.50 305.20 L 535.30 307.60 L 540.30 309.50 L 545.50 310.80 L 550.90 311.60 L 556.60 311.90 L 562.60 311.50 L 569.00 310.50" fill="none" node-id="337" stroke="#7d1c1c" stroke-linecap="butt" stroke-width="1.326" target-height="17.799988" target-width="52" target-x="517" target-y="294.1"/><path d="M 466.40 496.20 L 465.20 485.50 L 463.50 476.00 L 462.90 474.60 L 456.50 467.10 L 453.90 463.10 L 452.10 463.70 L 451.00 464.40 L 450.40 465.30 L 450.20 466.30 L 450.50 467.80 L 451.30 469.70 L 455.70 477.70 L 455.70 478.50 L 455.30 479.00 L 448.20 471.80 L 445.40 470.10 L 437.50 469.40 L 433.10 469.40 L 431.50 469.70 L 430.90 470.10 L 430.80 471.10 L 431.30 472.30 L 432.90 473.80 L 431.70 474.20 L 430.80 475.00 L 430.10 476.30 L 430.00 478.50 L 431.70 480.90 L 433.70 482.30 L 431.70 482.30 L 430.80 482.60 L 430.40 483.20 L 430.40 484.00 L 431.80 485.60 L 437.40 489.10 L 438.50 490.10 L 439.00 491.20 L 443.10 490.60 L 446.90 490.40 L 450.40 490.60 L 453.70 491.20 L 456.80 492.20 L 466.40 496.20 Z" fill="#ffae9c" fill-rule="evenodd" node-id="339" stroke="none" target-height="33.100006" target-width="36.399994" target-x="430" target-y="463.1"/><path d="M 432.90 473.80 L 443.20 475.60 L 448.30 479.30" fill="none" node-id="341" stroke="#7d1c1c" stroke-linecap="butt" stroke-width="1.326" target-height="5.5" target-width="15.399994" target-x="432.9" target-y="473.8"/><path d="M 430.10 476.60 L 440.60 479.30 L 445.50 482.80" fill="none" node-id="343" stroke="#7d1c1c" stroke-linecap="butt" stroke-width="1.326" target-height="6.1999817" target-width="15.399994" target-x="430.1" target-y="476.6"/><path d="M 433.10 482.10 L 435.30 482.60 L 437.50 483.70 L 439.60 485.10 L 441.70 487.10" fill="none" node-id="345" stroke="#7d1c1c" stroke-linecap="butt" stroke-width="1.326" target-height="5" target-width="8.600006" target-x="433.1" target-y="482.1"/><path d="M 502.10 498.20 L 502.10 524.10 L 525.00 513.70 L 551.50 513.70 L 557.90 495.70 L 554.70 492.60 L 551.90 490.50 L 549.50 489.30 L 547.50 488.70 L 545.60 488.70 L 540.90 490.00 L 528.70 494.40 L 525.50 495.30 L 502.10 498.20 Z" fill="#ffae9c" fill-rule="evenodd" node-id="347" stroke="none" target-height="35.399963" target-width="55.80002" target-x="502.1" target-y="488.7"/></svg>